<svg version="1.1" id="Layer_1" xmlns="http://www.w3.org/2000/svg" xmlns:xlink="http://www.w3.org/1999/xlink" x="0px" y="0px"
	 width="100%" viewBox="0 0 110 101" enable-background="new 0 0 110 101" xml:space="preserve">
<path fill="#66C6BA" opacity="1.000000" stroke="none" 
	d="
M78.000000,102.000000 
	C52.000000,102.000000 26.500000,102.000000 1.000000,102.000000 
	C1.000000,68.333336 1.000000,34.666668 1.000000,1.000000 
	C37.666668,1.000000 74.333336,1.000000 111.000000,1.000000 
	C111.000000,34.666668 111.000000,68.333336 111.000000,102.000000 
	C100.166664,102.000000 89.333336,102.000000 78.000000,102.000000 
M61.542072,25.588129 
	C60.013306,24.727077 58.484539,23.866026 56.330376,22.655199 
	C53.950916,21.980410 51.610241,20.993799 49.184380,20.692072 
	C43.066265,19.931103 39.692551,23.220585 40.054035,29.273973 
	C40.119167,30.364738 40.292194,31.449059 40.301136,31.527958 
	C37.431732,33.302303 35.219486,34.670288 33.063484,36.032383 
	C33.063484,36.032383 33.082222,35.977261 32.362709,35.830433 
	C30.447472,37.367672 28.324547,38.709179 26.656351,40.479240 
	C21.854235,45.574596 22.518700,51.467651 28.456686,53.931118 
	C29.491682,54.360508 29.860079,56.869053 30.169556,58.487453 
	C31.149174,63.610374 31.344774,68.977249 33.024731,73.841888 
	C34.322876,77.600922 38.150040,79.385132 42.055809,77.020981 
	C44.788208,75.367073 47.224770,75.545753 50.029907,76.976974 
	C50.975521,77.642555 51.921139,78.308136 53.181774,79.633392 
	C56.323189,80.605171 59.405449,81.989883 62.620106,82.450401 
	C67.258240,83.114830 71.082001,80.313591 70.910355,76.025398 
	C70.697693,70.712196 73.171249,68.808838 77.849197,67.801704 
	C82.107162,66.884995 87.695198,60.002258 87.722000,56.247700 
	C87.753632,51.814224 84.764236,49.900612 81.044380,48.072891 
	C81.008102,47.654377 80.971817,47.235859 80.917519,45.913551 
	C80.542168,41.328175 80.741730,36.601471 79.657372,32.190388 
	C78.011497,25.495113 73.287910,23.928812 67.241440,26.940786 
	C65.873184,27.622364 63.808521,26.905901 62.099968,26.453968 
	C62.099968,26.453968 62.101936,26.073130 62.209290,25.962791 
	C62.209290,25.962791 62.170067,25.737490 62.170067,25.737490 
	C62.170067,25.737490 61.937668,25.916676 61.542072,25.588129 
z"/>
<path fill="#F5FBFB" opacity="1.000000" stroke="none" 
	d="
M81.047966,48.702435 
	C84.764236,49.900612 87.753632,51.814224 87.722000,56.247700 
	C87.695198,60.002258 82.107162,66.884995 77.849197,67.801704 
	C73.171249,68.808838 70.697693,70.712196 70.910355,76.025398 
	C71.082001,80.313591 67.258240,83.114830 62.620106,82.450401 
	C59.405449,81.989883 56.323189,80.605171 53.466446,79.296539 
	C57.353428,79.111847 60.988438,79.587532 64.539116,79.228691 
	C65.676979,79.113693 66.591827,76.792046 67.608704,75.479980 
	C66.389244,75.031998 65.169785,74.584007 64.132713,73.829575 
	C64.575760,72.382797 65.445862,70.760506 64.991341,70.185753 
	C63.047569,67.727837 60.891731,65.352470 58.440998,63.418770 
	C57.318813,62.533333 54.421368,61.971252 53.906235,62.585419 
	C51.952881,64.914291 50.389404,67.689758 49.334423,70.540352 
	C49.148464,71.042824 51.979340,73.411171 53.622395,73.684853 
	C57.019192,74.250648 60.554264,73.986320 63.795147,74.370155 
	C59.017570,75.230751 54.477314,75.784622 49.937054,76.338486 
	C47.224770,75.545753 44.788208,75.367073 42.055809,77.020981 
	C38.150040,79.385132 34.322876,77.600922 33.024731,73.841888 
	C31.344774,68.977249 31.149174,63.610374 30.169556,58.487453 
	C29.860079,56.869053 29.491682,54.360508 28.456686,53.931118 
	C22.518700,51.467651 21.854235,45.574596 26.656351,40.479240 
	C28.324547,38.709179 30.447472,37.367672 32.648586,36.242081 
	C31.052322,39.167973 28.783567,41.498058 27.459341,44.278065 
	C26.843605,45.570709 28.062115,47.737080 28.449148,49.507381 
	C29.645950,48.613789 30.842752,47.720196 32.019913,47.222488 
	C33.068336,48.629997 34.277306,50.610138 35.179111,50.478939 
	C38.402893,50.009937 41.622654,49.061104 44.629032,47.786789 
	C45.732697,47.318977 47.167858,45.065487 46.848408,44.272285 
	C45.730698,41.497005 44.066628,38.881985 42.201538,36.530079 
	C41.912209,36.165222 39.007206,37.089611 38.143673,38.117001 
	C35.847408,40.848984 34.005577,43.962921 31.836357,46.561081 
	C32.902905,42.903580 34.116116,39.609966 35.471573,36.175385 
	C35.554729,35.811523 35.495647,35.588631 35.436562,35.365738 
	C35.235924,35.517342 35.035286,35.668949 34.528862,35.878654 
	C33.817799,35.970589 33.412521,36.004429 33.007240,36.038269 
	C35.219486,34.670288 37.431732,33.302303 40.301136,31.527958 
	C40.292194,31.449059 40.119167,30.364738 40.054035,29.273973 
	C39.692551,23.220585 43.066265,19.931103 49.184380,20.692072 
	C51.610241,20.993799 53.950916,21.980410 56.432987,23.151325 
	C53.181911,23.726973 49.798096,23.581306 46.492935,24.023525 
	C45.504017,24.155836 44.734886,25.930895 43.865059,26.953335 
	C44.734875,27.606548 45.604687,28.259764 46.325829,29.248997 
	C46.204010,30.845757 45.738312,32.474552 46.352459,33.296440 
	C48.021900,35.530579 49.951675,37.684780 52.168346,39.352036 
	C53.479103,40.337910 56.593407,41.208252 57.063175,40.633072 
	C59.050438,38.199863 60.600220,35.292549 61.638733,32.323757 
	C61.799583,31.863941 58.576626,29.511898 56.727417,29.211599 
	C53.346130,28.662506 49.822067,28.992580 46.687225,28.696621 
	C52.032738,27.902489 57.048580,27.367729 62.064423,26.832970 
	C63.808521,26.905901 65.873184,27.622364 67.241440,26.940786 
	C73.287910,23.928812 78.011497,25.495113 79.657372,32.190388 
	C80.741730,36.601471 80.542168,41.328175 80.674835,46.110924 
	C80.095589,44.169647 79.759018,42.030998 79.365692,39.500229 
	C78.347153,36.542564 77.662338,33.823418 76.348007,31.453386 
	C74.950569,28.933495 72.752716,27.617668 69.699699,30.074284 
	C69.275192,30.815729 69.093025,31.381298 68.590286,32.096001 
	C66.884575,35.897057 65.336472,39.497841 64.169075,43.218090 
	C63.329403,45.893951 64.500229,47.916477 67.450279,47.978184 
	C70.140495,48.034454 72.842422,47.531002 75.539185,47.274254 
	C75.229111,44.613228 75.000587,41.938759 74.565193,39.298397 
	C74.410645,38.361198 73.752861,37.506985 73.548004,36.410049 
	C73.912735,36.061142 74.054276,35.917076 74.469818,35.939114 
	C75.861229,37.398411 76.978638,38.691601 78.159683,40.375076 
	C79.164864,43.411053 80.106415,46.056744 81.047966,48.702435 
M37.356743,67.862938 
	C35.646549,65.967697 33.936352,64.072464 32.226158,62.177227 
	C31.782192,62.423935 31.338226,62.670643 30.894260,62.917355 
	C32.670467,66.405807 34.277634,70.000351 36.350170,73.302834 
	C36.826061,74.061127 38.955173,74.103439 40.210770,73.869781 
	C40.628582,73.792030 40.694199,71.821693 41.661175,70.874588 
	C46.675663,68.819916 45.647331,63.815407 46.775299,59.953648 
	C47.124992,58.756428 46.187801,56.015591 45.476334,55.879341 
	C42.478851,55.305317 39.312550,55.190083 36.287117,55.557796 
	C35.713623,55.627502 34.942307,58.763611 35.243034,60.291866 
	C35.765133,62.945122 37.052593,65.447777 37.356743,67.862938 
M76.125893,61.441544 
	C77.000748,58.728855 77.875610,56.016167 79.255692,51.736942 
	C73.883934,53.163437 69.903580,53.990410 66.130585,55.380253 
	C65.158409,55.738365 63.985470,58.258312 64.376305,59.109402 
	C65.619812,61.817272 67.557045,64.206573 69.226227,66.718971 
	C71.409111,65.180466 73.591995,63.641968 76.125893,61.441544 
M77.226227,63.485153 
	C77.737236,63.939320 78.344498,64.856583 78.743874,64.773582 
	C81.648651,64.169899 85.188042,57.844105 83.973900,55.210835 
	C83.510635,54.206074 82.098763,53.638695 80.964600,52.750980 
	C79.646309,56.647968 78.602974,59.732147 77.226227,63.485153 
M54.044552,53.987297 
	C56.743057,55.231636 58.348309,54.086349 58.361855,51.416142 
	C58.366367,50.526184 56.479019,48.819176 55.548344,48.880444 
	C52.526115,49.079399 52.405872,51.172363 54.044552,53.987297 
z"/>
<path fill="#7DCEC4" opacity="1.000000" stroke="none" 
	d="
M63.950329,74.136017 
	C65.169785,74.584007 66.389244,75.031998 67.608704,75.479980 
	C66.591827,76.792046 65.676979,79.113693 64.539116,79.228691 
	C60.988438,79.587532 57.353428,79.111847 53.308937,78.966705 
	C51.921139,78.308136 50.975521,77.642555 49.983482,76.657730 
	C54.477314,75.784622 59.017570,75.230751 63.784023,74.398949 
	C64.010216,74.121010 63.950329,74.136017 63.950329,74.136017 
z"/>
<path fill="#78CDC2" opacity="1.000000" stroke="none" 
	d="
M46.474503,28.912977 
	C45.604687,28.259764 44.734875,27.606548 43.865059,26.953335 
	C44.734886,25.930895 45.504017,24.155836 46.492935,24.023525 
	C49.798096,23.581306 53.181911,23.726973 56.745686,23.326210 
	C58.484539,23.866026 60.013306,24.727077 61.779419,25.793114 
	C62.016762,25.998096 62.101936,26.073130 62.101936,26.073130 
	C62.101936,26.073130 62.099968,26.453968 62.082195,26.643469 
	C57.048580,27.367729 52.032738,27.902489 46.715546,28.683460 
	C46.414200,28.929670 46.474503,28.912977 46.474503,28.912977 
z"/>
<path fill="#78CDC2" opacity="1.000000" stroke="none" 
	d="
M79.422447,39.892349 
	C79.759018,42.030998 80.095589,44.169647 80.683853,46.562820 
	C80.971817,47.235859 81.008102,47.654377 81.046173,48.387665 
	C80.106415,46.056744 79.164864,43.411053 78.491150,40.350121 
	C78.980133,39.920704 79.201294,39.906528 79.422447,39.892349 
z"/>
<path fill="#78CDC2" opacity="1.000000" stroke="none" 
	d="
M61.977215,25.957386 
	C61.937668,25.916676 62.170067,25.737490 62.170067,25.737490 
	C62.170067,25.737490 62.209290,25.962791 62.155613,26.017960 
	C62.101936,26.073130 62.016762,25.998096 61.977215,25.957386 
z"/>
<path fill="#6BC8BC" opacity="1.000000" stroke="none" 
	d="
M79.365692,39.500229 
	C79.201294,39.906528 78.980133,39.920704 78.427513,39.959839 
	C76.978638,38.691601 75.861229,37.398411 74.304245,35.728790 
	C73.447739,35.333683 73.030807,35.315002 72.613884,35.296322 
	C72.850861,35.735844 73.087837,36.175365 73.324806,36.614891 
	C73.752861,37.506985 74.410645,38.361198 74.565193,39.298397 
	C75.000587,41.938759 75.229111,44.613228 75.539185,47.274254 
	C72.842422,47.531002 70.140495,48.034454 67.450279,47.978184 
	C64.500229,47.916477 63.329403,45.893951 64.169075,43.218090 
	C65.336472,39.497841 66.884575,35.897057 68.807129,32.166466 
	C69.543701,31.358002 69.742874,30.628204 69.942039,29.898407 
	C72.752716,27.617668 74.950569,28.933495 76.348007,31.453386 
	C77.662338,33.823418 78.347153,36.542564 79.365692,39.500229 
z"/>
<path fill="#6BC8BC" opacity="1.000000" stroke="none" 
	d="
M46.325829,29.248997 
	C46.474503,28.912977 46.414200,28.929670 46.385876,28.942833 
	C49.822067,28.992580 53.346130,28.662506 56.727417,29.211599 
	C58.576626,29.511898 61.799583,31.863941 61.638733,32.323757 
	C60.600220,35.292549 59.050438,38.199863 57.063175,40.633072 
	C56.593407,41.208252 53.479103,40.337910 52.168346,39.352036 
	C49.951675,37.684780 48.021900,35.530579 46.352459,33.296440 
	C45.738312,32.474552 46.204010,30.845757 46.325829,29.248997 
z"/>
<path fill="#6CC8BD" opacity="1.000000" stroke="none" 
	d="
M31.983025,46.924965 
	C34.005577,43.962921 35.847408,40.848984 38.143673,38.117001 
	C39.007206,37.089611 41.912209,36.165222 42.201538,36.530079 
	C44.066628,38.881985 45.730698,41.497005 46.848408,44.272285 
	C47.167858,45.065487 45.732697,47.318977 44.629032,47.786789 
	C41.622654,49.061104 38.402893,50.009937 35.179111,50.478939 
	C34.277306,50.610138 33.068336,48.629997 31.999767,47.243626 
	C31.999262,46.868874 31.983025,46.924965 31.983025,46.924965 
z"/>
<path fill="#6DC9BD" opacity="1.000000" stroke="none" 
	d="
M75.950394,61.772507 
	C73.591995,63.641968 71.409111,65.180466 69.226227,66.718971 
	C67.557045,64.206573 65.619812,61.817272 64.376305,59.109402 
	C63.985470,58.258312 65.158409,55.738365 66.130585,55.380253 
	C69.903580,53.990410 73.883934,53.163437 79.255692,51.736942 
	C77.875610,56.016167 77.000748,58.728855 75.950394,61.772507 
z"/>
<path fill="#6BC8BC" opacity="1.000000" stroke="none" 
	d="
M64.021339,74.092216 
	C60.554264,73.986320 57.019192,74.250648 53.622395,73.684853 
	C51.979340,73.411171 49.148464,71.042824 49.334423,70.540352 
	C50.389404,67.689758 51.952881,64.914291 53.906235,62.585419 
	C54.421368,61.971252 57.318813,62.533333 58.440998,63.418770 
	C60.891731,65.352470 63.047569,67.727837 64.991341,70.185753 
	C65.445862,70.760506 64.575760,72.382797 64.132713,73.829575 
	C63.950329,74.136017 64.010216,74.121010 64.021339,74.092216 
z"/>
<path fill="#6AC8BC" opacity="1.000000" stroke="none" 
	d="
M38.019119,68.013580 
	C37.052593,65.447777 35.765133,62.945122 35.243034,60.291866 
	C34.942307,58.763611 35.713623,55.627502 36.287117,55.557796 
	C39.312550,55.190083 42.478851,55.305317 45.476334,55.879341 
	C46.187801,56.015591 47.124992,58.756428 46.775299,59.953648 
	C45.647331,63.815407 46.675663,68.819916 41.287842,70.561157 
	C40.716957,69.822342 40.519405,69.396973 40.063641,68.748489 
	C39.202255,68.333313 38.599083,68.141251 37.982071,67.972656 
	C37.968227,67.996140 38.019119,68.013580 38.019119,68.013580 
z"/>
<path fill="#78CDC2" opacity="1.000000" stroke="none" 
	d="
M40.321854,68.971596 
	C40.519405,69.396973 40.716957,69.822342 40.917667,70.482147 
	C40.694199,71.821693 40.628582,73.792030 40.210770,73.869781 
	C38.955173,74.103439 36.826061,74.061127 36.350170,73.302834 
	C34.277634,70.000351 32.670467,66.405807 30.894260,62.917355 
	C31.338226,62.670643 31.782192,62.423935 32.226158,62.177227 
	C33.936352,64.072464 35.646549,65.967697 37.687931,67.938263 
	C38.019119,68.013580 37.968227,67.996140 37.984760,68.297501 
	C38.774815,68.723114 39.548332,68.847351 40.321854,68.971596 
z"/>
<path fill="#75CCC1" opacity="1.000000" stroke="none" 
	d="
M32.019409,46.847740 
	C30.842752,47.720196 29.645950,48.613789 28.449148,49.507381 
	C28.062115,47.737080 26.843605,45.570709 27.459341,44.278065 
	C28.783567,41.498058 31.052322,39.167973 33.008343,36.315491 
	C33.082222,35.977261 33.063484,36.032383 33.035362,36.035324 
	C33.412521,36.004429 33.817799,35.970589 34.652241,36.002892 
	C35.081402,36.069035 35.329327,36.316349 35.329330,36.316349 
	C34.116116,39.609966 32.902905,42.903580 31.836357,46.561081 
	C31.983025,46.924965 31.999262,46.868874 32.019409,46.847740 
z"/>
<path fill="#70CABF" opacity="1.000000" stroke="none" 
	d="
M77.392929,63.150742 
	C78.602974,59.732147 79.646309,56.647968 80.964600,52.750980 
	C82.098763,53.638695 83.510635,54.206074 83.973900,55.210835 
	C85.188042,57.844105 81.648651,64.169899 78.743874,64.773582 
	C78.344498,64.856583 77.737236,63.939320 77.392929,63.150742 
z"/>
<path fill="#78CDC2" opacity="1.000000" stroke="none" 
	d="
M53.744606,53.758438 
	C52.405872,51.172363 52.526115,49.079399 55.548344,48.880444 
	C56.479019,48.819176 58.366367,50.526184 58.361855,51.416142 
	C58.348309,54.086349 56.743057,55.231636 53.744606,53.758438 
z"/>
<path fill="#78CDC2" opacity="1.000000" stroke="none" 
	d="
M69.699699,30.074284 
	C69.742874,30.628204 69.543701,31.358002 69.127701,32.017334 
	C69.093025,31.381298 69.275192,30.815729 69.699699,30.074284 
z"/>
<path fill="#75CCC1" opacity="1.000000" stroke="none" 
	d="
M34.958023,35.944794 
	C35.035286,35.668949 35.235924,35.517342 35.436562,35.365738 
	C35.495647,35.588631 35.554729,35.811523 35.471569,36.175385 
	C35.329327,36.316349 35.081402,36.069035 34.958023,35.944794 
z"/>
<path fill="#F5FBFB" opacity="1.000000" stroke="none" 
	d="
M73.548004,36.410049 
	C73.087837,36.175365 72.850861,35.735844 72.613884,35.296322 
	C73.030807,35.315002 73.447739,35.333683 74.030243,35.562683 
	C74.054276,35.917076 73.912735,36.061142 73.548004,36.410049 
z"/>
<path fill="#F5FBFB" opacity="1.000000" stroke="none" 
	d="
M40.063641,68.748489 
	C39.548332,68.847351 38.774815,68.723114 37.998604,68.274025 
	C38.599083,68.141251 39.202255,68.333313 40.063641,68.748489 
z"/>
</svg>