<svg version="1.1" id="Layer_1" xmlns="http://www.w3.org/2000/svg" xmlns:xlink="http://www.w3.org/1999/xlink" x="0px" y="0px"
	 width="100%" viewBox="0 0 643 427" enable-background="new 0 0 643 427" xml:space="preserve">
<path fill="#FFFFFF" opacity="1.000000" stroke="none" 
	d="
M409.000000,428.000000 
	C272.698395,428.000000 136.896759,428.000000 1.047570,428.000000 
	C1.047570,285.731628 1.047570,143.463226 1.047570,1.097416 
	C215.218307,1.097416 429.436676,1.097416 643.827515,1.097416 
	C643.827515,143.333160 643.827515,285.666565 643.827515,428.000000 
	C565.796509,428.000000 487.648254,428.000000 409.000000,428.000000 
M238.744095,224.500000 
	C238.743881,206.834747 238.767303,189.169464 238.733078,171.504272 
	C238.716888,163.142242 235.572159,160.006317 227.272324,160.002563 
	C196.274765,159.988541 165.277222,159.991913 134.279663,160.000397 
	C126.115952,160.002625 123.015297,163.002563 123.008980,171.001343 
	C122.987396,198.332504 122.987968,225.663712 123.008781,252.994873 
	C123.014740,260.822845 126.110542,263.988953 133.776779,263.994019 
	C165.107620,264.014709 196.438522,264.017181 227.769348,263.992249 
	C235.420212,263.986176 238.671509,260.726654 238.727417,252.997726 
	C238.793732,243.832260 238.743408,234.665939 238.744095,224.500000 
M480.766235,215.344833 
	C480.766235,208.062576 480.766235,200.780304 480.766235,193.257767 
	C478.419373,193.257767 476.341675,193.257767 473.931183,193.257767 
	C473.931183,202.628693 473.622559,211.749405 474.023346,220.838837 
	C474.379974,228.926819 478.757172,233.041992 485.638763,232.841202 
	C492.530731,232.640137 496.245056,228.271332 496.429718,219.959900 
	C496.588715,212.803375 496.660248,205.644211 496.696198,198.485855 
	C496.726410,192.473190 496.129486,192.087158 489.553650,193.949234 
	C489.553650,200.440155 489.629852,207.081848 489.517670,213.720352 
	C489.470154,216.532791 489.410309,219.455658 488.602966,222.098236 
	C488.195343,223.432465 486.069153,225.120331 484.792358,225.062103 
	C483.527191,225.004410 481.867126,223.155472 481.268829,221.721466 
	C480.605408,220.131393 480.948181,218.121506 480.766235,215.344833 
M426.115784,232.635101 
	C431.262146,231.431152 435.340973,228.808273 437.275452,223.688965 
	C439.813843,216.971466 440.230042,210.085617 438.054352,203.195282 
	C436.033325,196.794785 430.613403,192.878784 424.303009,192.986023 
	C418.276276,193.088440 412.468903,196.995377 411.314117,203.357880 
	C410.303345,208.926819 410.220490,214.943100 411.160248,220.520416 
	C412.502441,228.486008 417.104767,231.810410 426.115784,232.635101 
M298.214966,211.693954 
	C294.790009,218.569839 291.365082,225.445724 287.833282,232.536072 
	C301.637329,232.536072 314.633240,232.536072 328.264679,232.536072 
	C321.459351,219.060242 314.943207,206.156967 307.987579,192.383484 
	C304.523041,199.272614 301.560730,205.163086 298.214966,211.693954 
M448.947876,199.490875 
	C443.023407,207.715332 443.122620,216.212036 448.063080,224.756866 
	C451.593018,230.862061 458.400391,233.919403 465.093079,232.484695 
	C466.286407,232.228851 468.136841,230.947479 468.177979,230.069061 
	C468.453552,224.190506 468.321228,218.292801 468.321228,212.026169 
	C465.124542,212.026169 462.783508,211.821030 460.508575,212.119476 
	C459.490234,212.253067 458.023346,213.253448 457.810242,214.119034 
	C457.562195,215.126572 458.148834,217.125534 458.919250,217.468796 
	C463.514191,219.516037 461.152893,222.757401 461.011414,225.763809 
	C454.632294,224.769928 451.555939,219.654037 451.971619,211.299484 
	C452.401154,202.666397 455.659485,200.147552 467.442108,199.340012 
	C468.555298,193.210693 467.076813,191.094635 461.392151,192.605316 
	C457.128906,193.738297 453.362122,196.739410 448.947876,199.490875 
M365.936035,201.207611 
	C363.667603,211.392639 361.399200,221.577667 359.136230,231.738235 
	C364.148743,233.584396 366.924561,232.170898 367.322937,225.818192 
	C370.544403,227.063309 374.433380,227.374374 375.243195,229.116638 
	C377.194122,233.314041 379.512909,232.788361 382.960632,231.587234 
	C380.142517,218.572098 377.385437,205.838791 374.674652,193.319214 
	C371.949707,193.319214 369.865387,193.319214 367.666046,193.319214 
	C367.085114,195.864258 366.570221,198.120041 365.936035,201.207611 
M511.459961,192.867523 
	C510.295258,192.867554 509.107147,193.018250 507.969971,192.841370 
	C503.167389,192.094345 501.614929,194.022873 501.893707,198.848389 
	C502.296082,205.812393 502.031616,212.817398 501.984009,219.804428 
	C501.897766,232.464279 501.875916,232.433304 514.786987,232.030121 
	C517.150818,231.956284 519.044556,231.895767 519.055359,228.687210 
	C519.065308,225.710373 517.812744,224.366776 514.948181,224.337418 
	C513.156433,224.319061 511.364258,224.334000 509.668701,224.334000 
	C508.075928,215.724503 508.151947,215.785400 516.080322,213.970184 
	C517.205139,213.712646 518.388733,211.539749 518.551880,210.137741 
	C518.638062,209.397018 516.700928,207.959381 515.466309,207.632004 
	C513.496033,207.109528 511.349823,207.250458 509.372681,207.117264 
	C508.730316,200.394241 508.730316,200.394241 518.637085,198.515549 
	C518.637085,196.806137 518.637085,195.083878 518.637085,192.867371 
	C516.332092,192.867371 514.376465,192.867371 511.459961,192.867523 
M275.892303,226.123291 
	C269.703552,224.365768 266.964935,218.910095 267.825806,210.053772 
	C268.569977,202.397919 271.462921,200.089676 281.464508,199.171585 
	C282.638519,192.627686 281.122803,190.851608 274.987701,192.962051 
	C271.247955,194.248489 267.302094,196.522293 264.803680,199.492325 
	C259.963409,205.246262 260.293396,212.559967 261.497131,219.548584 
	C262.855164,227.433044 268.265076,232.016022 276.258575,232.790283 
	C281.927185,233.339371 282.913300,232.167450 281.633820,226.192062 
	C280.023560,226.192062 278.376984,226.192062 275.892303,226.123291 
M388.138214,194.941147 
	C388.125427,203.566010 388.105835,212.190872 388.101471,220.815735 
	C388.095184,233.281311 388.098206,233.238312 400.572266,232.751740 
	C403.227722,232.648148 404.992981,232.253647 404.969727,228.927368 
	C404.947479,225.741226 403.183685,225.496674 400.792175,225.528961 
	C399.029480,225.552765 397.264160,225.384109 394.912170,225.273575 
	C394.912170,214.342697 394.912170,203.849548 394.912170,192.527374 
	C392.214996,193.154007 390.264862,193.607086 388.138214,194.941147 
M333.847809,194.779694 
	C333.463470,197.074081 333.330872,199.472504 336.547699,199.353485 
	C340.546356,199.205536 340.639618,201.567963 340.578125,204.484100 
	C340.417236,212.111633 340.301239,219.741928 340.318054,227.370789 
	C340.330627,233.090668 341.270752,233.652054 347.016571,231.630127 
	C347.016571,223.598816 347.146545,215.473785 346.967560,207.355560 
	C346.861237,202.532578 346.357513,197.787842 353.716522,199.328308 
	C353.716522,196.968307 353.716522,195.227646 353.716522,192.536377 
	C346.937683,193.043427 340.500854,193.524902 333.847809,194.779694 
z"/>
<path fill="#67C6BB" opacity="1.000000" stroke="none" 
	d="
M238.743866,225.000000 
	C238.743408,234.665939 238.793732,243.832260 238.727417,252.997726 
	C238.671509,260.726654 235.420212,263.986176 227.769348,263.992249 
	C196.438522,264.017181 165.107620,264.014709 133.776779,263.994019 
	C126.110542,263.988953 123.014740,260.822845 123.008781,252.994873 
	C122.987968,225.663712 122.987396,198.332504 123.008980,171.001343 
	C123.015297,163.002563 126.115952,160.002625 134.279663,160.000397 
	C165.277222,159.991913 196.274765,159.988541 227.272324,160.002563 
	C235.572159,160.006317 238.716888,163.142242 238.733078,171.504272 
	C238.767303,189.169464 238.743881,206.834747 238.743866,225.000000 
M190.002167,188.092972 
	C190.002167,188.092972 189.897476,188.125443 189.934540,187.470276 
	C189.341293,186.988388 188.748032,186.506500 187.780624,185.496735 
	C187.179337,185.319870 186.578049,185.143005 185.977036,185.007385 
	C185.977036,185.007385 186.016754,185.015060 185.644089,184.417709 
	C183.691620,183.545456 181.801147,182.478607 179.776306,181.833572 
	C169.262009,178.484207 165.333084,181.674088 166.151184,191.388718 
	C164.077118,192.855209 162.546600,193.937393 160.395432,194.800751 
	C159.835541,195.092255 159.275650,195.383759 158.038605,195.830505 
	C147.824631,202.048096 147.215057,207.921173 155.997635,215.717575 
	C155.997635,215.717575 156.042679,216.111115 156.059952,217.020447 
	C156.601303,221.938385 156.567902,227.010315 157.833603,231.734161 
	C159.321274,237.286362 163.812790,239.469986 168.081207,237.066055 
	C170.834503,235.515427 173.226593,235.531662 175.989944,236.999695 
	C176.960037,237.659714 177.930115,238.319733 179.181946,239.655914 
	C181.835373,240.559509 184.433182,241.715561 187.153625,242.314896 
	C193.087875,243.622284 197.341278,240.499771 196.958420,234.571442 
	C196.691788,230.443115 199.490707,229.612518 201.878311,228.076019 
	C204.711746,226.252609 208.102081,225.034378 210.419601,222.720963 
	C216.114655,217.035950 214.628448,211.578644 207.032974,208.101852 
	C207.002243,207.683243 206.971512,207.264618 206.926926,205.938263 
	C206.934296,202.792419 207.263702,199.607758 206.890244,196.507797 
	C205.639664,186.127686 199.933716,183.152969 190.587952,188.084305 
	C190.356262,188.087387 190.124573,188.090469 190.002167,188.092972 
z"/>
<path fill="#6AA1B0" opacity="1.000000" stroke="none" 
	d="
M480.809509,215.819626 
	C480.948181,218.121506 480.605408,220.131393 481.268829,221.721466 
	C481.867126,223.155472 483.527191,225.004410 484.792358,225.062103 
	C486.069153,225.120331 488.195343,223.432465 488.602966,222.098236 
	C489.410309,219.455658 489.470154,216.532791 489.517670,213.720352 
	C489.629852,207.081848 489.553650,200.440155 489.553650,193.949234 
	C496.129486,192.087158 496.726410,192.473190 496.696198,198.485855 
	C496.660248,205.644211 496.588715,212.803375 496.429718,219.959900 
	C496.245056,228.271332 492.530731,232.640137 485.638763,232.841202 
	C478.757172,233.041992 474.379974,228.926819 474.023346,220.838837 
	C473.622559,211.749405 473.931183,202.628693 473.931183,193.257767 
	C476.341675,193.257767 478.419373,193.257767 480.766235,193.257767 
	C480.766235,200.780304 480.766235,208.062576 480.809509,215.819626 
z"/>
<path fill="#6AA1B0" opacity="1.000000" stroke="none" 
	d="
M425.724213,232.663971 
	C417.104767,231.810410 412.502441,228.486008 411.160248,220.520416 
	C410.220490,214.943100 410.303345,208.926819 411.314117,203.357880 
	C412.468903,196.995377 418.276276,193.088440 424.303009,192.986023 
	C430.613403,192.878784 436.033325,196.794785 438.054352,203.195282 
	C440.230042,210.085617 439.813843,216.971466 437.275452,223.688965 
	C435.340973,228.808273 431.262146,231.431152 425.724213,232.663971 
M432.200226,206.629333 
	C431.059845,202.411224 429.403748,198.395187 424.128784,198.837143 
	C419.046417,199.262955 417.245483,203.396484 416.997375,207.662476 
	C416.735321,212.169174 416.926849,216.908234 418.135101,221.204132 
	C418.705231,223.231400 422.132416,225.742264 424.231018,225.711472 
	C426.603210,225.676651 430.376862,223.469620 430.991791,221.436249 
	C432.324341,217.029968 432.032257,212.132355 432.200226,206.629333 
z"/>
<path fill="#74A7B5" opacity="1.000000" stroke="none" 
	d="
M298.406677,211.373749 
	C301.560730,205.163086 304.523041,199.272614 307.987579,192.383484 
	C314.943207,206.156967 321.459351,219.060242 328.264679,232.536072 
	C314.633240,232.536072 301.637329,232.536072 287.833282,232.536072 
	C291.365082,225.445724 294.790009,218.569839 298.406677,211.373749 
M312.875397,209.643646 
	C311.380493,206.781799 309.885559,203.919968 307.944824,200.204620 
	C302.891724,210.269226 298.339233,219.336792 293.619049,228.738281 
	C303.558136,228.738281 312.595459,228.738281 322.698730,228.738281 
	C318.870209,224.345795 314.683838,226.475571 311.150024,226.122818 
	C307.277985,225.736328 303.337585,226.034851 298.641296,226.034851 
	C301.882690,219.595856 304.728851,213.941986 308.019745,207.404678 
	C310.182037,211.678284 311.849731,214.974380 313.518982,218.273544 
	C310.235352,219.118622 307.656097,219.782425 305.076843,220.446213 
	C305.212128,220.921875 305.347412,221.397522 305.482697,221.873169 
	C309.813995,221.873169 314.145294,221.873169 319.054260,221.873169 
	C316.915009,217.672012 315.044952,213.999481 312.875397,209.643646 
z"/>
<path fill="#69A0B0" opacity="1.000000" stroke="none" 
	d="
M449.161072,199.199829 
	C453.362122,196.739410 457.128906,193.738297 461.392151,192.605316 
	C467.076813,191.094635 468.555298,193.210693 467.442108,199.340012 
	C455.659485,200.147552 452.401154,202.666397 451.971619,211.299484 
	C451.555939,219.654037 454.632294,224.769928 461.011414,225.763809 
	C461.152893,222.757401 463.514191,219.516037 458.919250,217.468796 
	C458.148834,217.125534 457.562195,215.126572 457.810242,214.119034 
	C458.023346,213.253448 459.490234,212.253067 460.508575,212.119476 
	C462.783508,211.821030 465.124542,212.026169 468.321228,212.026169 
	C468.321228,218.292801 468.453552,224.190506 468.177979,230.069061 
	C468.136841,230.947479 466.286407,232.228851 465.093079,232.484695 
	C458.400391,233.919403 451.593018,230.862061 448.063080,224.756866 
	C443.122620,216.212036 443.023407,207.715332 449.161072,199.199829 
z"/>
<path fill="#6AA1B0" opacity="1.000000" stroke="none" 
	d="
M365.995667,200.791718 
	C366.570221,198.120041 367.085114,195.864258 367.666046,193.319214 
	C369.865387,193.319214 371.949707,193.319214 374.674652,193.319214 
	C377.385437,205.838791 380.142517,218.572098 382.960632,231.587234 
	C379.512909,232.788361 377.194122,233.314041 375.243195,229.116638 
	C374.433380,227.374374 370.544403,227.063309 367.322937,225.818192 
	C366.924561,232.170898 364.148743,233.584396 359.136230,231.738235 
	C361.399200,221.577667 363.667603,211.392639 365.995667,200.791718 
M371.496155,220.074158 
	C371.820038,217.039169 372.143921,214.004196 372.467773,210.969208 
	C371.567474,210.962601 370.667175,210.955994 369.766846,210.949387 
	C370.057251,213.992126 370.347626,217.034851 371.496155,220.074158 
z"/>
<path fill="#659EAE" opacity="1.000000" stroke="none" 
	d="
M511.940369,192.867447 
	C514.376465,192.867371 516.332092,192.867371 518.637085,192.867371 
	C518.637085,195.083878 518.637085,196.806137 518.637085,198.515549 
	C508.730316,200.394241 508.730316,200.394241 509.372681,207.117264 
	C511.349823,207.250458 513.496033,207.109528 515.466309,207.632004 
	C516.700928,207.959381 518.638062,209.397018 518.551880,210.137741 
	C518.388733,211.539749 517.205139,213.712646 516.080322,213.970184 
	C508.151947,215.785400 508.075928,215.724503 509.668701,224.334000 
	C511.364258,224.334000 513.156433,224.319061 514.948181,224.337418 
	C517.812744,224.366776 519.065308,225.710373 519.055359,228.687210 
	C519.044556,231.895767 517.150818,231.956284 514.786987,232.030121 
	C501.875916,232.433304 501.897766,232.464279 501.984009,219.804428 
	C502.031616,212.817398 502.296082,205.812393 501.893707,198.848389 
	C501.614929,194.022873 503.167389,192.094345 507.969971,192.841370 
	C509.107147,193.018250 510.295258,192.867554 511.940369,192.867447 
z"/>
<path fill="#6DA3B2" opacity="1.000000" stroke="none" 
	d="
M276.311340,226.157684 
	C278.376984,226.192062 280.023560,226.192062 281.633820,226.192062 
	C282.913300,232.167450 281.927185,233.339371 276.258575,232.790283 
	C268.265076,232.016022 262.855164,227.433044 261.497131,219.548584 
	C260.293396,212.559967 259.963409,205.246262 264.803680,199.492325 
	C267.302094,196.522293 271.247955,194.248489 274.987701,192.962051 
	C281.122803,190.851608 282.638519,192.627686 281.464508,199.171585 
	C271.462921,200.089676 268.569977,202.397919 267.825806,210.053772 
	C266.964935,218.910095 269.703552,224.365768 276.311340,226.157684 
z"/>
<path fill="#6CA2B1" opacity="1.000000" stroke="none" 
	d="
M388.226440,194.500641 
	C390.264862,193.607086 392.214996,193.154007 394.912170,192.527374 
	C394.912170,203.849548 394.912170,214.342697 394.912170,225.273575 
	C397.264160,225.384109 399.029480,225.552765 400.792175,225.528961 
	C403.183685,225.496674 404.947479,225.741226 404.969727,228.927368 
	C404.992981,232.253647 403.227722,232.648148 400.572266,232.751740 
	C388.098206,233.238312 388.095184,233.281311 388.101471,220.815735 
	C388.105835,212.190872 388.125427,203.566010 388.226440,194.500641 
z"/>
<path fill="#6AA1B0" opacity="1.000000" stroke="none" 
	d="
M333.955933,194.393036 
	C340.500854,193.524902 346.937683,193.043427 353.716522,192.536377 
	C353.716522,195.227646 353.716522,196.968307 353.716522,199.328308 
	C346.357513,197.787842 346.861237,202.532578 346.967560,207.355560 
	C347.146545,215.473785 347.016571,223.598816 347.016571,231.630127 
	C341.270752,233.652054 340.330627,233.090668 340.318054,227.370789 
	C340.301239,219.741928 340.417236,212.111633 340.578125,204.484100 
	C340.639618,201.567963 340.546356,199.205536 336.547699,199.353485 
	C333.330872,199.472504 333.463470,197.074081 333.955933,194.393036 
z"/>
<path fill="#F5FBFA" opacity="1.000000" stroke="none" 
	d="
M191.279037,188.158981 
	C199.933716,183.152969 205.639664,186.127686 206.890244,196.507797 
	C207.263702,199.607758 206.934296,202.792419 206.638885,206.181274 
	C206.018616,204.250229 205.686386,202.076172 205.290924,199.509537 
	C204.602127,197.122879 204.154510,195.049652 203.311081,193.152405 
	C201.887619,189.950439 200.045044,187.246796 195.694031,190.073730 
	C195.260483,190.802689 195.083267,191.372437 194.586029,192.089020 
	C192.907333,195.563065 191.234390,198.808243 190.335068,202.255249 
	C189.940811,203.766449 190.841400,207.018906 191.643295,207.190216 
	C194.737640,207.851212 198.056000,207.797348 201.213196,207.397141 
	C201.597244,207.348450 201.821075,203.539429 201.547577,201.551773 
	C201.307953,199.810211 200.264694,198.179230 199.726532,196.324921 
	C199.876633,196.150436 200.172714,195.797989 200.449707,195.959076 
	C201.843887,197.408676 202.961075,198.697220 204.119125,200.382568 
	C204.504822,202.546402 204.705811,204.359390 205.249878,206.062775 
	C205.563019,207.043137 206.431458,207.846115 207.049942,208.728943 
	C214.628448,211.578644 216.114655,217.035950 210.419601,222.720963 
	C208.102081,225.034378 204.711746,226.252609 201.878311,228.076019 
	C199.490707,229.612518 196.691788,230.443115 196.958420,234.571442 
	C197.341278,240.499771 193.087875,243.622284 187.153625,242.314896 
	C184.433182,241.715561 181.835373,240.559509 179.483765,239.312622 
	C182.581772,239.273651 185.379578,239.834381 188.173798,239.817154 
	C191.646881,239.795776 194.284088,238.581207 193.396194,234.530945 
	C187.348495,235.149399 181.646927,235.732468 175.945358,236.315521 
	C173.226593,235.531662 170.834503,235.515427 168.081207,237.066055 
	C163.812790,239.469986 159.321274,237.286362 157.833603,231.734161 
	C156.567902,227.010315 156.601303,221.938385 156.351990,216.806335 
	C156.773682,217.890793 156.641571,219.286240 157.079803,220.470642 
	C158.699234,224.847427 160.365311,229.222733 162.385147,233.419907 
	C162.718033,234.111633 164.966156,234.191330 166.217697,233.957443 
	C166.636063,233.879272 166.706955,231.941711 167.315277,230.901642 
	C172.638474,229.054947 171.517349,224.117355 172.727997,220.442429 
	C173.158203,219.136566 172.191208,216.039413 171.499054,215.923309 
	C168.359085,215.396469 165.059082,215.423172 161.901657,215.862106 
	C161.462402,215.923157 161.061478,219.472504 161.418365,221.251450 
	C161.885925,223.582001 163.124512,225.757858 163.693420,227.921631 
	C159.948837,224.717667 157.493668,221.165817 157.868103,216.220139 
	C157.887070,215.969604 156.661453,215.624847 156.015320,215.323975 
	C147.215057,207.921173 147.824631,202.048096 158.503967,195.900864 
	C158.969345,195.971222 159.220749,196.269012 159.037415,196.544464 
	C156.963196,199.306351 154.672668,201.602615 153.358871,204.363663 
	C152.749969,205.643341 154.043030,207.828049 154.473831,209.602448 
	C155.654938,208.713699 156.836060,207.824951 158.005127,207.338165 
	C158.879623,208.754639 159.946442,210.745148 160.622543,210.620270 
	C164.180176,209.963150 167.714645,208.964264 171.083939,207.642471 
	C172.031189,207.270859 173.204224,205.064819 172.877213,204.288345 
	C171.703873,201.502457 170.055984,198.876038 168.240601,196.448792 
	C167.996109,196.121872 165.308914,196.895676 164.546799,197.816742 
	C162.152893,200.709961 160.137939,203.916748 157.875793,206.612305 
	C158.858307,202.806839 159.941299,199.391174 161.012360,195.988235 
	C161.000412,196.000961 160.977859,196.027573 161.225433,195.996811 
	C161.307632,195.633194 161.142258,195.300354 160.986328,194.980438 
	C160.995758,194.993362 161.016068,195.019562 161.016068,195.019562 
	C162.546600,193.937393 164.077118,192.855209 166.151184,191.388718 
	C165.333084,181.674088 169.262009,178.484207 179.776306,181.833572 
	C181.801147,182.478607 183.691620,183.545456 185.424042,184.763153 
	C183.472717,184.694489 181.756851,184.032898 180.006531,183.923752 
	C177.323441,183.756409 174.580704,183.741165 171.941238,184.156677 
	C171.122818,184.285492 170.147415,185.981079 170.041061,187.039474 
	C169.983780,187.609528 171.614090,188.349152 172.282059,189.315094 
	C172.137512,190.876892 171.716888,192.495209 172.342361,193.325439 
	C174.015488,195.546219 175.933487,197.706009 178.157135,199.342499 
	C179.500458,200.331116 182.664352,201.178131 183.163895,200.570618 
	C185.147766,198.157944 186.651810,195.232559 187.670197,192.269150 
	C187.826462,191.814392 184.605881,189.493423 182.766998,189.212006 
	C179.383896,188.694275 175.866989,189.050964 172.720703,188.757538 
	C178.656219,188.356369 184.276840,188.240906 189.897476,188.125443 
	C189.897476,188.125443 190.002167,188.092972 190.031982,188.337799 
	C190.467545,188.441422 190.873291,188.300201 191.279037,188.158981 
M191.828812,223.477890 
	C195.068497,227.752686 197.097000,228.115082 200.230881,223.964539 
	C202.507431,220.949448 203.767212,217.166626 206.172180,212.336639 
	C201.615982,213.008255 198.667267,213.135864 195.900192,213.911469 
	C189.074066,215.824844 189.107574,215.944366 191.828812,223.477890 
M186.177155,233.996292 
	C188.130341,233.524704 190.083527,233.053116 192.036728,232.581528 
	C192.563232,231.774231 193.089722,230.966919 193.616226,230.159622 
	C190.341263,227.715134 187.192154,225.064041 183.717651,222.947021 
	C182.618683,222.277435 179.813889,222.440140 179.236771,223.251373 
	C177.525787,225.656433 176.536194,228.574677 175.264526,231.292252 
	C177.786163,232.217621 180.287567,233.205780 182.842087,234.029129 
	C183.584610,234.268433 184.479004,234.036438 186.177155,233.996292 
M207.871918,222.184906 
	C211.420578,216.526398 211.155975,214.568222 206.716934,213.313705 
	C205.367599,217.458893 204.019669,221.599792 202.181030,227.248154 
	C204.636246,225.171021 206.037308,223.985718 207.871918,222.184906 
M179.440216,213.563644 
	C180.985519,213.454437 182.591965,213.542053 184.032272,213.094757 
	C184.383270,212.985779 184.641052,210.675781 184.139755,210.165359 
	C183.373230,209.384857 181.294159,208.633957 180.867355,209.035233 
	C179.908844,209.936401 179.623734,211.553818 179.440216,213.563644 
z"/>
<path fill="#7CCEC4" opacity="1.000000" stroke="none" 
	d="
M175.967651,236.657608 
	C181.646927,235.732468 187.348495,235.149399 193.396194,234.530945 
	C194.284088,238.581207 191.646881,239.795776 188.173798,239.817154 
	C185.379578,239.834381 182.581772,239.273651 179.342896,238.974548 
	C177.930115,238.319733 176.960037,237.659714 175.967651,236.657608 
z"/>
<path fill="#7CCEC4" opacity="1.000000" stroke="none" 
	d="
M172.482971,189.012268 
	C171.614090,188.349152 169.983780,187.609528 170.041061,187.039474 
	C170.147415,185.981079 171.122818,184.285492 171.941238,184.156677 
	C174.580704,183.741165 177.323441,183.756409 180.006531,183.923752 
	C181.756851,184.032898 183.472717,184.694489 185.610382,185.061829 
	C186.016754,185.015060 185.977036,185.007385 186.083847,185.310104 
	C186.845367,185.750076 187.500076,185.887344 188.154785,186.024612 
	C188.748032,186.506500 189.341293,186.988388 189.916016,187.797852 
	C184.276840,188.240906 178.656219,188.356369 172.738342,188.745667 
	C172.441101,189.019485 172.482971,189.012268 172.482971,189.012268 
z"/>
<path fill="#7CCEC4" opacity="1.000000" stroke="none" 
	d="
M166.936691,230.854095 
	C166.706955,231.941711 166.636063,233.879272 166.217697,233.957443 
	C164.966156,234.191330 162.718033,234.111633 162.385147,233.419907 
	C160.365311,229.222733 158.699234,224.847427 157.079803,220.470642 
	C156.641571,219.286240 156.773682,217.890793 156.343353,216.351669 
	C156.042679,216.111115 155.997635,215.717575 156.006470,215.520782 
	C156.661453,215.624847 157.887070,215.969604 157.868103,216.220139 
	C157.493668,221.165817 159.948837,224.717667 163.675629,227.921982 
	C163.995865,228.000946 164.003098,227.965118 163.980164,228.309601 
	C164.401581,229.124619 164.845932,229.595169 165.541260,230.053329 
	C166.173737,230.311996 166.555206,230.583054 166.936691,230.854095 
z"/>
<path fill="#7CCEC4" opacity="1.000000" stroke="none" 
	d="
M207.041458,208.415405 
	C206.431458,207.846115 205.563019,207.043137 205.249878,206.062775 
	C204.705811,204.359390 204.504822,202.546402 204.438416,200.367966 
	C204.929276,199.938400 205.141708,199.920242 205.354156,199.902100 
	C205.686386,202.076172 206.018616,204.250229 206.645813,206.635162 
	C206.971512,207.264618 207.002243,207.683243 207.041458,208.415405 
z"/>
<path fill="#F5FBFA" opacity="1.000000" stroke="none" 
	d="
M187.967712,185.760681 
	C187.500076,185.887344 186.845367,185.750076 186.083710,185.289474 
	C186.578049,185.143005 187.179337,185.319870 187.967712,185.760681 
z"/>
<path fill="#F5FBFA" opacity="1.000000" stroke="none" 
	d="
M158.842560,195.823242 
	C159.275650,195.383759 159.835541,195.092255 160.705750,194.910156 
	C161.016068,195.019562 160.995758,194.993362 160.958557,195.245590 
	C160.940201,195.674408 160.959030,195.850983 160.977859,196.027573 
	C160.977859,196.027573 161.000412,196.000961 160.704163,195.973236 
	C160.012192,196.053360 159.616470,196.161179 159.220749,196.269012 
	C159.220749,196.269012 158.969345,195.971222 158.842560,195.823242 
z"/>
<path fill="#7CCEC4" opacity="1.000000" stroke="none" 
	d="
M190.933502,188.121643 
	C190.873291,188.300201 190.467545,188.441422 189.977356,188.338089 
	C190.124573,188.090469 190.356262,188.087387 190.933502,188.121643 
z"/>
<path fill="#FCFDFD" opacity="1.000000" stroke="none" 
	d="
M432.302368,207.032501 
	C432.032257,212.132355 432.324341,217.029968 430.991791,221.436249 
	C430.376862,223.469620 426.603210,225.676651 424.231018,225.711472 
	C422.132416,225.742264 418.705231,223.231400 418.135101,221.204132 
	C416.926849,216.908234 416.735321,212.169174 416.997375,207.662476 
	C417.245483,203.396484 419.046417,199.262955 424.128784,198.837143 
	C429.403748,198.395187 431.059845,202.411224 432.302368,207.032501 
z"/>
<path fill="#FCFDFD" opacity="1.000000" stroke="none" 
	d="
M313.025146,209.985291 
	C315.044952,213.999481 316.915009,217.672012 319.054260,221.873169 
	C314.145294,221.873169 309.813995,221.873169 305.482697,221.873169 
	C305.347412,221.397522 305.212128,220.921875 305.076843,220.446213 
	C307.656097,219.782425 310.235352,219.118622 313.518982,218.273544 
	C311.849731,214.974380 310.182037,211.678284 308.019745,207.404678 
	C304.728851,213.941986 301.882690,219.595856 298.641296,226.034851 
	C303.337585,226.034851 307.277985,225.736328 311.150024,226.122818 
	C314.683838,226.475571 318.870209,224.345795 322.698730,228.738281 
	C312.595459,228.738281 303.558136,228.738281 293.619049,228.738281 
	C298.339233,219.336792 302.891724,210.269226 307.944824,200.204620 
	C309.885559,203.919968 311.380493,206.781799 313.025146,209.985291 
z"/>
<path fill="#F5FBFA" opacity="1.000000" stroke="none" 
	d="
M371.067078,220.075867 
	C370.347626,217.034851 370.057251,213.992126 369.766846,210.949387 
	C370.667175,210.955994 371.567474,210.962601 372.467773,210.969208 
	C372.143921,214.004196 371.820038,217.039169 371.067078,220.075867 
z"/>
<path fill="#6CC8BD" opacity="1.000000" stroke="none" 
	d="
M205.290924,199.509537 
	C205.141708,199.920242 204.929276,199.938400 204.397552,199.971161 
	C202.961075,198.697220 201.843887,197.408676 200.279724,195.736359 
	C199.402222,195.344269 198.971680,195.335983 198.541153,195.327698 
	C198.886230,195.718262 199.231323,196.108826 199.576416,196.499390 
	C200.264694,198.179230 201.307953,199.810211 201.547577,201.551773 
	C201.821075,203.539429 201.597244,207.348450 201.213196,207.397141 
	C198.056000,207.797348 194.737640,207.851212 191.643295,207.190216 
	C190.841400,207.018906 189.940811,203.766449 190.335068,202.255249 
	C191.234390,198.808243 192.907333,195.563065 194.842377,192.186737 
	C195.595963,191.396576 195.773163,190.655548 195.950348,189.914520 
	C200.045044,187.246796 201.887619,189.950439 203.311081,193.152405 
	C204.154510,195.049652 204.602127,197.122879 205.290924,199.509537 
z"/>
<path fill="#6CC8BD" opacity="1.000000" stroke="none" 
	d="
M191.630249,223.152313 
	C189.107574,215.944366 189.074066,215.824844 195.900192,213.911469 
	C198.667267,213.135864 201.615982,213.008255 206.172180,212.336639 
	C203.767212,217.166626 202.507431,220.949448 200.230881,223.964539 
	C197.097000,228.115082 195.068497,227.752686 191.630249,223.152313 
z"/>
<path fill="#6CC8BD" opacity="1.000000" stroke="none" 
	d="
M157.976242,207.002106 
	C160.137939,203.916748 162.152893,200.709961 164.546799,197.816742 
	C165.308914,196.895676 167.996109,196.121872 168.240601,196.448792 
	C170.055984,198.876038 171.703873,201.502457 172.877213,204.288345 
	C173.204224,205.064819 172.031189,207.270859 171.083939,207.642471 
	C167.714645,208.964264 164.180176,209.963150 160.622543,210.620270 
	C159.946442,210.745148 158.879623,208.754639 157.991302,207.353058 
	C157.989517,206.965958 157.976242,207.002106 157.976242,207.002106 
z"/>
<path fill="#6BC8BC" opacity="1.000000" stroke="none" 
	d="
M172.282059,189.315094 
	C172.482971,189.012268 172.441101,189.019485 172.423462,189.031357 
	C175.866989,189.050964 179.383896,188.694275 182.766998,189.212006 
	C184.605881,189.493423 187.826462,191.814392 187.670197,192.269150 
	C186.651810,195.232559 185.147766,198.157944 183.163895,200.570618 
	C182.664352,201.178131 179.500458,200.331116 178.157135,199.342499 
	C175.933487,197.706009 174.015488,195.546219 172.342361,193.325439 
	C171.716888,192.495209 172.137512,190.876892 172.282059,189.315094 
z"/>
<path fill="#6BC8BC" opacity="1.000000" stroke="none" 
	d="
M167.315277,230.901642 
	C166.555206,230.583054 166.173737,230.311996 165.478882,229.715790 
	C164.778046,228.915466 164.390564,228.440292 164.003098,227.965118 
	C164.003098,227.965118 163.995865,228.000946 164.013657,228.000610 
	C163.124512,225.757858 161.885925,223.582001 161.418365,221.251450 
	C161.061478,219.472504 161.462402,215.923157 161.901657,215.862106 
	C165.059082,215.423172 168.359085,215.396469 171.499054,215.923309 
	C172.191208,216.039413 173.158203,219.136566 172.727997,220.442429 
	C171.517349,224.117355 172.638474,229.054947 167.315277,230.901642 
z"/>
<path fill="#6BC8BC" opacity="1.000000" stroke="none" 
	d="
M185.740479,234.008392 
	C184.479004,234.036438 183.584610,234.268433 182.842087,234.029129 
	C180.287567,233.205780 177.786163,232.217621 175.264526,231.292252 
	C176.536194,228.574677 177.525787,225.656433 179.236771,223.251373 
	C179.813889,222.440140 182.618683,222.277435 183.717651,222.947021 
	C187.192154,225.064041 190.341263,227.715134 193.616226,230.159622 
	C193.089722,230.966919 192.563232,231.774231 192.036728,232.581528 
	C190.083527,233.053116 188.130341,233.524704 185.740479,234.008392 
z"/>
<path fill="#75CCC1" opacity="1.000000" stroke="none" 
	d="
M159.037415,196.544464 
	C159.616470,196.161179 160.012192,196.053360 160.716095,195.960510 
	C159.941299,199.391174 158.858307,202.806839 157.875793,206.612305 
	C157.976242,207.002106 157.989517,206.965958 158.003357,206.951080 
	C156.836060,207.824951 155.654938,208.713699 154.473831,209.602448 
	C154.043030,207.828049 152.749969,205.643341 153.358871,204.363663 
	C154.672668,201.602615 156.963196,199.306351 159.037415,196.544464 
z"/>
<path fill="#75CCC1" opacity="1.000000" stroke="none" 
	d="
M207.655151,222.492661 
	C206.037308,223.985718 204.636246,225.171021 202.181030,227.248154 
	C204.019669,221.599792 205.367599,217.458893 206.716934,213.313705 
	C211.155975,214.568222 211.420578,216.526398 207.655151,222.492661 
z"/>
<path fill="#75CCC1" opacity="1.000000" stroke="none" 
	d="
M179.252350,213.221649 
	C179.623734,211.553818 179.908844,209.936401 180.867355,209.035233 
	C181.294159,208.633957 183.373230,209.384857 184.139755,210.165359 
	C184.641052,210.675781 184.383270,212.985779 184.032272,213.094757 
	C182.591965,213.542053 180.985519,213.454437 179.252350,213.221649 
z"/>
<path fill="#7CCEC4" opacity="1.000000" stroke="none" 
	d="
M195.694031,190.073730 
	C195.773163,190.655548 195.595963,191.396576 195.162415,192.039886 
	C195.083267,191.372437 195.260483,190.802689 195.694031,190.073730 
z"/>
<path fill="#75CCC1" opacity="1.000000" stroke="none" 
	d="
M161.225433,195.996811 
	C160.959030,195.850983 160.940201,195.674408 160.949127,195.232666 
	C161.142258,195.300354 161.307632,195.633194 161.225433,195.996811 
z"/>
<path fill="#F5FBFA" opacity="1.000000" stroke="none" 
	d="
M163.980164,228.309601 
	C164.390564,228.440292 164.778046,228.915466 165.227890,229.728180 
	C164.845932,229.595169 164.401581,229.124619 163.980164,228.309601 
z"/>
<path fill="#F5FBFA" opacity="1.000000" stroke="none" 
	d="
M199.726532,196.324921 
	C199.231323,196.108826 198.886230,195.718262 198.541153,195.327698 
	C198.971680,195.335983 199.402222,195.344269 200.002731,195.575272 
	C200.172714,195.797989 199.876633,196.150436 199.726532,196.324921 
z"/>
</svg>